# xmcd
#
# Track frame offsets: 
#        150
#        17157
#        29412
#        46539
#        69258
#        83529
#        98160
#        109335
#        126966
#        140925
#        156468
#        174747
#
# Disc length: 2726 seconds
#
# Revision: 0
# Processed by: cddbd v1.5.2PL0 Copyright (c) Steve Scherf et al.
# Submitted via: ExactAudioCopy v0.95a5
#
DISCID=a00aa40c
DTITLE=Rick McKee - New Religion
DYEAR=2004
DGENRE=
TTITLE0=Flying
TTITLE1=I'll Just Call It Love
TTITLE2=James, Otis, Michelle and Me
TTITLE3=Riverside
TTITLE4=Repentance
TTITLE5=April Fool
TTITLE6=Who Hung the Moon?
TTITLE7=Looking for Something
TTITLE8=World of Hurt
TTITLE9=Deep, Sweet, Quiet of Morning
TTITLE10=Helplessl, Hopelessly
TTITLE11=My New Religion
EXTD=
EXTT0=
EXTT1=
EXTT2=
EXTT3=
EXTT4=
EXTT5=
EXTT6=
EXTT7=
EXTT8=
EXTT9=
EXTT10=
EXTT11=
PLAYORDER=
